<?xml version="1.0" encoding="UTF-8"?>
<svg id="Layer_1" data-name="Layer 1" xmlns="http://www.w3.org/2000/svg" viewBox="0 0 821.1 552.77">
  <defs>
    <style>
      .cls-1 {
        fill: #c6d1a5;
      }
    </style>
  </defs>
  <path class="cls-1" d="M56.19,200.52v.03c-140.93,403.63,533.95,461.32,764.9,168.08C426.33,411.58,286.11-164.36,114.67,84.43c8.23,21.83,17.34,42.6,27.67,62.86,52.14-12.81,109.33-12.6,171.55,13.17-56.38,5.92-105.34,12.53-145.56,31.64,18.14,28.07,38.79,54.68,63.54,78.66,53.46-23.52,112-34.24,177.07-27.6-49.38,14.32-96.16,34.12-140.17,59.74,26.84,20.78,57.38,39.09,92.04,55.71,34.97-13.85,72.76-23.47,113.08-27.59-26.98,12.77-53.58,26.66-78.68,42.21,54.95,22.48,118.72,40.72,194.84,53.19-80.8,11.56-153.07,5.73-218.16-10.75,9.99,30.74,21.89,61.84,36.52,92.38-31.82-33.57-56.34-68.25-75.45-103.43-30.4-10.24-58.87-23.16-85.48-37.71,11.4,45.65,27.02,91.19,48.7,136.42-52.75-55.61-86.23-113.53-105.59-172.91-21.48-15.3-42.59-30.61-60.96-47.62,10.57,57.4,30.15,114.18,57.42,171.06-73.39-77.31-109.86-159.31-122.21-242.51-2.89-3.63-5.77-7.23-8.62-10.82h-.01ZM44.37.32h0c28.82,120.38,68.32,212.69,187.07,316.81C98.6,243.48,18.78,98,0,22.28,8.94,4.6,27-1.5,44.36.3c0,0,0,.02,0,.02Z"/>
</svg>